<?xml version="1.0" standalone="no"?>
<!DOCTYPE svg PUBLIC "-//W3C//DTD SVG 20010904//EN"
 "http://www.w3.org/TR/2001/REC-SVG-20010904/DTD/svg10.dtd">
<svg version="1.0" xmlns="http://www.w3.org/2000/svg"
 width="153.000000pt" height="142.000000pt" viewBox="0 0 153.000000 142.000000"
 preserveAspectRatio="xMidYMid meet">

<g transform="translate(0.000000,142.000000) scale(0.100000,-0.100000)"
fill="#000000" stroke="none">
<path d="M545 1044 c-242 -156 -444 -291 -450 -299 -17 -26 6 -47 55 -50 47
-3 105 26 175 86 35 29 664 438 713 463 21 11 32 24 32 37 0 20 -1 21 -25 5
-30 -20 -39 -20 -31 -1 7 19 -3 45 -18 45 -6 0 -209 -129 -451 -286z"/>
<path d="M716 881 c-33 -22 -63 -46 -68 -54 -11 -21 19 -44 69 -52 26 -4 79
-30 140 -69 406 -260 430 -278 402 -312 -19 -23 -35 -16 -34 14 0 24 -14 36
-110 100 -277 184 -389 252 -414 252 -21 0 -9 -11 59 -54 260 -166 410 -268
405 -277 -4 -5 -43 -34 -88 -64 l-81 -55 -31 29 c-16 16 -159 114 -316 219
-214 143 -292 189 -308 185 -27 -7 -27 -24 2 -50 12 -11 151 -107 309 -212
267 -177 291 -191 333 -191 25 0 45 -3 45 -7 0 -5 -28 -26 -63 -49 -48 -31
-68 -39 -87 -34 -14 4 -182 111 -373 239 -191 127 -355 231 -364 231 -23 0
-11 -8 366 -259 l322 -214 -46 -30 c-57 -37 -59 -62 -7 -76 20 -6 43 -11 50
-11 16 0 373 240 417 280 64 58 138 100 178 100 46 0 45 5 -9 53 -45 41 -611
407 -628 407 -6 0 -38 -18 -70 -39z"/>
<path d="M1125 248 c-251 -169 -283 -189 -312 -184 -39 6 -43 -5 -8 -24 23
-12 39 -3 320 185 162 109 298 202 301 206 17 28 -50 -13 -301 -183z"/>
</g>
</svg>
